<svg width="80" height="82" viewBox="0 0 80 82" fill="none" xmlns="http://www.w3.org/2000/svg">
<path d="M77.9563 32.1286L73.8771 36.2078C73.3537 36.7312 72.6746 37.0708 71.9418 37.1755L71.7772 37.199C71.5389 37.233 71.2968 37.2302 71.0594 37.1906C70.3871 37.0786 69.7996 36.6794 69.3997 36.1275C68.4956 34.8795 66.6897 32.7099 64.8054 32.2912C63.0033 31.8907 60.4063 32.3544 59.1342 33.6922C58.5344 34.3229 58.1944 35.0404 58.6655 35.5973C60.7438 38.0542 64.5188 41.4977 66.7653 43.8018L70.6138 47.7491C71.459 48.6159 72.2285 49.5904 72.5833 50.7479C72.722 51.2004 72.796 51.6106 72.8033 52.006C72.8322 53.5846 71.5689 54.8256 70.4674 55.9568L64.2356 62.3571C63.6727 62.9351 62.8498 63.5965 62.1173 63.9347C58.4493 65.6278 55.1254 60.7611 52.2311 57.9427C51.8173 57.5398 51.3653 57.1675 50.8725 56.8509C48.5396 55.3521 46.4746 55.3419 44.1751 56.0826C42.1376 56.7389 40.4169 58.0966 38.9033 59.6102L36.6719 61.8416C35.4436 63.0699 34.0364 64.3731 32.2994 64.3644C30.6139 64.3561 29.2451 63.0895 28.0533 61.8976L22.3554 56.1998C21.3762 55.2205 20.3513 54.1406 19.9832 52.8056C19.3438 50.487 21.2981 48.4261 23.0191 46.746L28.9141 40.9914C29.838 40.0895 30.8575 39.404 32.1486 39.3819C33.7904 39.3538 35.4096 40.2885 36.522 41.4964C37.9859 43.0859 39.2487 44.3636 40.8612 45.7804C42.302 47.0464 44.0629 48.208 45.9685 48.426C48.3478 48.6983 50.5259 47.4764 52.3074 45.8759C53.6664 44.655 54.7311 43.3823 56.0678 41.5011C56.8561 40.229 56.6499 39.5041 55.5955 38.1949C53.0444 35.6413 51.335 34.2125 48.6996 31.9223C48.2616 31.5417 47.8023 30.9878 47.537 30.4718C46.8981 29.2295 47.6403 27.9665 48.628 26.9788L52.5355 23.0713C53.1451 22.4617 53.882 22.0031 54.744 21.9904C55.8771 21.9738 56.926 22.6393 57.6647 23.4985C58.4546 24.4172 59.1913 25.1715 60.1711 26.0137C61.0131 26.7375 62.1023 27.0958 63.2126 27.0958C64.5349 27.0958 65.803 26.5706 66.738 25.6356L69.246 23.1276C69.8949 22.4787 70.7537 21.9192 71.6713 21.9284C72.6324 21.9381 73.4308 22.4967 74.1104 23.1763L78.1612 27.2271C78.6993 27.7653 79.2431 28.4489 79.3686 29.1996C79.5601 30.3457 78.7779 31.307 77.9563 32.1286Z" fill="url(#paint0_linear_288_555)" stroke="#4A91A5" stroke-width="0.472303"/>
<path d="M68.7735 2.34674L66.9737 4.14654C66.4805 4.63978 66.0368 5.24427 66.0361 5.94181C66.0354 6.66577 66.4911 7.2914 67.0031 7.80332L69.0455 9.84572C69.6762 10.4764 70.4273 11.1462 71.3184 11.1084C72.0516 11.0773 72.6274 10.5366 73.1463 10.0177L75.2541 7.90989C75.8394 7.32458 76.4568 6.65546 76.4121 5.82891C76.3778 5.19591 75.9209 4.66169 75.4883 4.19825L74.0416 2.64816C73.2485 1.79843 72.269 0.95056 71.1078 1.00276C70.1824 1.04436 69.4285 1.69171 68.7735 2.34674Z" fill="#3897CA" stroke="#4A91A5" stroke-width="0.472303"/>
<path d="M50.5364 43.2712L53.3703 40.4374C53.6317 40.176 53.6332 39.7526 53.3737 39.4893L38.9714 24.8752C38.1859 24.0781 37.2684 23.423 36.2596 22.9388L36.0905 22.8576C33.4406 21.5857 30.3462 21.6373 27.7402 22.9969C26.8846 23.4433 26.1034 24.0199 25.4246 24.7059L4.25073 46.105L4.13825 46.255C1.69656 49.5106 1.74267 53.9994 4.25073 57.2041L25.2692 78.6605C26.3541 79.768 27.6937 80.5928 29.171 81.0628L29.2475 81.0872C31.112 81.6804 33.1167 81.6667 34.9729 81.048C36.3553 80.5872 37.609 79.8061 38.632 78.7685L53.1375 64.0559C53.397 63.7926 53.3955 63.3693 53.1341 63.1079L50.6561 60.453C50.1094 59.8672 49.4525 59.395 48.7231 59.0634C46.291 57.9579 43.4224 58.5656 41.6476 60.5624L38.4641 64.1437C37.5529 65.1688 36.4009 65.951 35.1119 66.4197L34.7875 66.5377C32.9268 67.2143 30.8731 67.1207 29.0816 66.2777C28.2776 65.8994 27.548 65.38 26.9274 64.7442L18.9994 56.6228C18.4584 56.0686 17.9997 55.4397 17.6373 54.7552L17.245 54.0141C16.4855 52.5796 16.3307 50.9011 16.8148 49.3519C17.0939 48.4588 17.5752 47.6421 18.2212 46.9653L22.1983 42.7989L26.8728 38.1244C27.2191 37.778 27.5989 37.4667 28.0064 37.195C30.6145 35.4563 34.0328 35.5392 36.5535 37.4023L37.0296 37.7543C37.5311 38.1249 37.9891 38.551 38.3949 39.0245L42.035 43.2712C44.3826 45.6188 48.1888 45.6188 50.5364 43.2712Z" fill="url(#paint1_linear_288_555)" stroke="#4A91A5" stroke-width="0.472303"/>
<defs>
<linearGradient id="paint0_linear_288_555" x1="42.7426" y1="59.2829" x2="11.5794" y2="59.9874" gradientUnits="userSpaceOnUse">
<stop stop-color="#0E87C9"/>
<stop offset="0.613406" stop-color="#0C699A"/>
</linearGradient>
<linearGradient id="paint1_linear_288_555" x1="37.5481" y1="54.6065" x2="-8.75575e-07" y2="54.3703" gradientUnits="userSpaceOnUse">
<stop stop-color="#0779B7"/>
<stop offset="0.497555" stop-color="#0C699A"/>
</linearGradient>
</defs>
</svg>
